FILE "Minimum Nanonic (1997)(NEC Home Electronics)(JP)[FXNHE631].img" BINARY
  TRACK 01 AUDIO
    INDEX 01 00:00:00
  TRACK 02 MODE1/2352
    PREGAP 00:03:00
    INDEX 01 00:55:45
  TRACK 03 AUDIO
    PREGAP 00:02:00
    INDEX 01 46:19:13
  TRACK 04 AUDIO
    INDEX 01 50:26:16
  TRACK 05 AUDIO
    INDEX 01 54:32:59
